<svg width="163" height="66" viewBox="0 0 163 66" fill="none" xmlns="http://www.w3.org/2000/svg">
<path d="M28.36 39.56H26.36V41.56H28.36V39.56ZM37.56 39.56H39.56V37.56H37.56V39.56ZM37.56 44V46H39.56V44H37.56ZM22.76 44H20.76V46H22.76V44ZM22.76 16.08V14.08H20.76V16.08H22.76ZM28.36 16.08H30.36V14.08H28.36V16.08ZM28.36 41.56H37.56V37.56H28.36V41.56ZM35.56 39.56V44H39.56V39.56H35.56ZM37.56 42H22.76V46H37.56V42ZM24.76 44V16.08H20.76V44H24.76ZM22.76 18.08H28.36V14.08H22.76V18.08ZM26.36 16.08V39.56H30.36V16.08H26.36ZM61.5594 34.6V36.6H63.2536L63.5322 34.9288L61.5594 34.6ZM45.3594 34.6V32.6H43.1858L43.3663 34.7661L45.3594 34.6ZM47.0394 38.36L45.6861 39.8327V39.8327L47.0394 38.36ZM55.1194 37.04V35.04H53.875L53.3252 36.1563L55.1194 37.04ZM61.1594 37.04L63.075 37.6147L63.8474 35.04H61.1594V37.04ZM57.4794 42.32L58.6794 43.92L58.6869 43.9144L58.6943 43.9087L57.4794 42.32ZM45.0394 42.96L44.0471 44.6965L44.0633 44.7058L44.0798 44.7147L45.0394 42.96ZM41.0794 38.92L39.3184 39.8682L39.3241 39.8786L39.3298 39.889L41.0794 38.92ZM41.0794 26.88L39.3184 25.9318L41.0794 26.88ZM44.9994 22.88L45.9707 24.6283L44.9994 22.88ZM56.4394 22.84L55.4777 24.5937L55.4895 24.6L56.4394 22.84ZM60.3194 26.72L58.5593 27.6699L58.5684 27.6866L58.5777 27.7032L60.3194 26.72ZM55.9194 30.84V32.84H57.9568L57.919 30.803L55.9194 30.84ZM54.3594 27.4L53.048 28.9101L53.0595 28.92L53.0711 28.9298L54.3594 27.4ZM47.1194 27.36L48.4454 28.8572L48.4481 28.8548L47.1194 27.36ZM45.3994 30.84L43.4195 30.5572L43.0934 32.84H45.3994V30.84ZM59.7194 32.44C59.7194 33.1541 59.6715 33.7615 59.5866 34.2712L63.5322 34.9288C63.6605 34.1585 63.7194 33.3259 63.7194 32.44H59.7194ZM61.5594 32.6H45.3594V36.6H61.5594V32.6ZM43.3663 34.7661C43.5326 36.7616 44.2589 38.5212 45.6861 39.8327L48.3926 36.8873C47.8465 36.3855 47.4528 35.6384 47.3525 34.4339L43.3663 34.7661ZM45.6861 39.8327C47.0709 41.1051 48.779 41.72 50.6794 41.72V37.72C49.6998 37.72 48.9812 37.4282 48.3926 36.8873L45.6861 39.8327ZM50.6794 41.72C52.0093 41.72 53.273 41.4322 54.3829 40.7623C55.498 40.0892 56.3308 39.1069 56.9136 37.9237L53.3252 36.1563C53.028 36.7598 52.6807 37.1175 52.3158 37.3377C51.9458 37.5611 51.4294 37.72 50.6794 37.72V41.72ZM55.1194 39.04H61.1594V35.04H55.1194V39.04ZM59.2437 36.4653C58.7279 38.1847 57.7522 39.5936 56.2645 40.7313L58.6943 43.9087C60.8332 42.2731 62.3108 40.162 63.075 37.6147L59.2437 36.4653ZM56.2794 40.72C54.8671 41.7792 53.0806 42.36 50.7994 42.36V46.36C53.7981 46.36 56.465 45.5808 58.6794 43.92L56.2794 40.72ZM50.7994 42.36C48.9682 42.36 47.3836 41.9625 45.999 41.2053L44.0798 44.7147C46.1085 45.8242 48.3639 46.36 50.7994 46.36V42.36ZM46.0317 41.2235C44.6775 40.4497 43.616 39.3721 42.829 37.951L39.3298 39.889C40.4627 41.9346 42.0412 43.5503 44.0471 44.6965L46.0317 41.2235ZM42.8403 37.9718C42.0862 36.5713 41.6794 34.9062 41.6794 32.92H37.6794C37.6794 35.4671 38.2059 37.802 39.3184 39.8682L42.8403 37.9718ZM41.6794 32.92C41.6794 30.9028 42.088 29.2254 42.8403 27.8282L39.3184 25.9318C38.2041 28.0013 37.6794 30.3505 37.6794 32.92H41.6794ZM42.8403 27.8282C43.597 26.4229 44.6335 25.3712 45.9707 24.6283L44.0281 21.1317C42.0053 22.2555 40.4284 23.8704 39.3184 25.9318L42.8403 27.8282ZM45.9707 24.6283C47.3146 23.8817 48.9051 23.48 50.7994 23.48V19.48C48.3203 19.48 46.0441 20.0117 44.0281 21.1317L45.9707 24.6283ZM50.7994 23.48C52.61 23.48 54.1524 23.8669 55.4777 24.5936L57.401 21.0864C55.4197 19.9998 53.2021 19.48 50.7994 19.48V23.48ZM55.4895 24.6C56.8262 25.3214 57.8379 26.3332 58.5593 27.6699L62.0794 25.7701C60.9875 23.7468 59.4125 22.1719 57.3892 21.08L55.4895 24.6ZM58.5777 27.7032C59.3195 29.0172 59.7194 30.5763 59.7194 32.44H63.7194C63.7194 29.9837 63.1859 27.7295 62.061 25.7368L58.5777 27.7032ZM57.919 30.803C57.8827 28.8427 57.1439 27.1302 55.6476 25.8702L53.0711 28.9298C53.6015 29.3765 53.9027 29.9573 53.9197 30.877L57.919 30.803ZM55.6707 25.8899C54.2588 24.6637 52.5397 24.08 50.6394 24.08V28.08C51.6724 28.08 52.4333 28.3763 53.048 28.9101L55.6707 25.8899ZM50.6394 24.08C48.8052 24.08 47.1472 24.6594 45.7906 25.8652L48.4481 28.8548C49.0116 28.354 49.7002 28.08 50.6394 28.08V24.08ZM45.7933 25.8628C44.4343 27.0665 43.6852 28.697 43.4195 30.5572L47.3793 31.1228C47.5402 29.9963 47.9378 29.3068 48.4454 28.8572L45.7933 25.8628ZM45.3994 32.84H55.9194V28.84H45.3994V32.84ZM65.6869 26.88L63.9147 25.953L63.909 25.9638L63.9035 25.9746L65.6869 26.88ZM69.3269 22.88L68.2935 21.1676L68.2869 21.1716L68.2803 21.1757L69.3269 22.88ZM78.8069 22.48L77.8518 24.2372L77.8597 24.2415L77.8676 24.2457L78.8069 22.48ZM81.8069 25L80.1968 26.1864L83.8069 31.0858V25H81.8069ZM81.8069 21.84V19.84H79.8069V21.84H81.8069ZM87.4469 21.84H89.4469V19.84H87.4469V21.84ZM87.4469 44V46H89.4469V44H87.4469ZM81.8069 44H79.8069V46H81.8069V44ZM81.8069 40.76H83.8069V34.3575L80.1625 39.6216L81.8069 40.76ZM78.8069 43.36L79.7461 45.1257L79.7528 45.1222L79.7594 45.1186L78.8069 43.36ZM69.3269 42.92L68.2589 44.611L68.2655 44.6152L68.2721 44.6193L69.3269 42.92ZM65.6869 38.88L63.898 39.7744L63.9062 39.7908L63.9147 39.807L65.6869 38.88ZM81.0069 29.44L79.2475 30.391L79.253 30.4012L79.2586 30.4113L81.0069 29.44ZM78.8469 27.2L77.8328 28.9239L77.8519 28.9351L77.8712 28.9459L78.8469 27.2ZM73.0469 27.16L72.0489 25.4268L73.0469 27.16ZM70.8869 29.4L69.1475 28.4128L69.143 28.4207L69.1386 28.4287L70.8869 29.4ZM70.8869 36.36L69.117 37.2915L69.1318 37.3196L69.1475 37.3472L70.8869 36.36ZM73.0469 38.64L72.0103 40.3504L72.0215 40.3572L72.0328 40.3639L73.0469 38.64ZM78.8469 38.68L79.8225 40.4259L79.8418 40.4151L79.8609 40.4039L78.8469 38.68ZM81.0069 36.44L82.7552 37.4113L82.7608 37.4012L82.7663 37.391L81.0069 36.44ZM66.3669 32.84C66.3669 30.8666 66.7529 29.1982 67.4702 27.7854L63.9035 25.9746C62.8608 28.0284 62.3669 30.3334 62.3669 32.84H66.3669ZM67.4591 27.807C68.2151 26.3616 69.1903 25.3108 70.3734 24.5843L68.2803 21.1757C66.4235 22.3159 64.972 23.9317 63.9147 25.953L67.4591 27.807ZM70.3602 24.5924C71.5797 23.8565 72.9394 23.48 74.4869 23.48V19.48C72.2476 19.48 70.1673 20.0369 68.2935 21.1676L70.3602 24.5924ZM74.4869 23.48C75.8681 23.48 76.9679 23.7569 77.8518 24.2372L79.7619 20.7227C78.1925 19.8698 76.4123 19.48 74.4869 19.48V23.48ZM77.8676 24.2457C78.8908 24.79 79.6491 25.4431 80.1968 26.1864L83.417 23.8136C82.4714 22.5303 81.2296 21.5034 79.7461 20.7143L77.8676 24.2457ZM83.8069 25V21.84H79.8069V25H83.8069ZM81.8069 23.84H87.4469V19.84H81.8069V23.84ZM85.4469 21.84V44H89.4469V21.84H85.4469ZM87.4469 42H81.8069V46H87.4469V42ZM83.8069 44V40.76H79.8069V44H83.8069ZM80.1625 39.6216C79.6464 40.367 78.9 41.035 77.8543 41.6014L79.7594 45.1186C81.2737 44.2983 82.5273 43.233 83.4513 41.8984L80.1625 39.6216ZM77.8676 41.5943C76.9478 42.0836 75.8268 42.36 74.4469 42.36V46.36C76.3736 46.36 78.1593 45.9698 79.7461 45.1257L77.8676 41.5943ZM74.4469 42.36C72.9429 42.36 71.6032 41.979 70.3816 41.2207L68.2721 44.6193C70.1439 45.781 72.2175 46.36 74.4469 46.36V42.36ZM70.3949 41.229C69.1987 40.4736 68.2172 39.4024 67.4591 37.953L63.9147 39.807C64.9698 41.8242 66.415 43.4464 68.2589 44.611L70.3949 41.229ZM67.4757 37.9856C66.7543 36.5427 66.3669 34.8434 66.3669 32.84H62.3669C62.3669 35.3699 62.8595 37.6973 63.898 39.7744L67.4757 37.9856ZM83.8069 32.92C83.8069 31.3002 83.4885 29.7887 82.7552 28.4687L79.2586 30.4113C79.5919 31.0113 79.8069 31.8198 79.8069 32.92H83.8069ZM82.7663 28.489C82.0675 27.1961 81.0871 26.1608 79.8225 25.4541L77.8712 28.9459C78.42 29.2525 78.8796 29.7106 79.2475 30.391L82.7663 28.489ZM79.8609 25.4761C78.6506 24.7642 77.3277 24.4 75.9269 24.4V28.4C76.606 28.4 77.2298 28.5692 77.8328 28.9239L79.8609 25.4761ZM75.9269 24.4C74.5455 24.4 73.2401 24.7409 72.0489 25.4268L74.0448 28.8932C74.6137 28.5657 75.2283 28.4 75.9269 28.4V24.4ZM72.0489 25.4268C70.8245 26.1317 69.8625 27.153 69.1475 28.4128L72.6262 30.3872C73.0312 29.6736 73.5092 29.2016 74.0448 28.8932L72.0489 25.4268ZM69.1386 28.4287C68.4083 29.7432 68.0869 31.2391 68.0869 32.84H72.0869C72.0869 31.7742 72.2988 30.9768 72.6352 30.3713L69.1386 28.4287ZM68.0869 32.84C68.0869 34.4444 68.4094 35.9471 69.117 37.2915L72.6567 35.4285C72.2976 34.7463 72.0869 33.9022 72.0869 32.84H68.0869ZM69.1475 37.3472C69.8584 38.5998 70.8089 39.6223 72.0103 40.3504L74.0835 36.9296C73.5249 36.5911 73.0353 36.0935 72.6262 35.3728L69.1475 37.3472ZM72.0328 40.3639C73.2346 41.0708 74.543 41.44 75.9269 41.44V37.44C75.284 37.44 74.6725 37.2759 74.0609 36.9161L72.0328 40.3639ZM75.9269 41.44C77.308 41.44 78.6173 41.0994 79.8225 40.4259L77.8712 36.9341C77.2632 37.2739 76.6258 37.44 75.9269 37.44V41.44ZM79.8609 40.4039C81.0889 39.6815 82.0566 38.6688 82.7552 37.4113L79.2586 35.4687C78.8905 36.1312 78.4182 36.6118 77.8328 36.9561L79.8609 40.4039ZM82.7663 37.391C83.4878 36.0563 83.8069 34.542 83.8069 32.92H79.8069C79.8069 34.018 79.5926 34.8504 79.2475 35.489L82.7663 37.391ZM98.5163 25.28H96.5163V32.3632L100.221 26.326L98.5163 25.28ZM101.316 22.52L100.328 20.7811L100.32 20.786L100.311 20.791L101.316 22.52ZM105.316 21.52H107.316V19.52H105.316V21.52ZM105.316 27.4V29.4H107.316V27.4H105.316ZM99.8363 28.64L98.4887 27.1621L98.4777 27.1721L98.4669 27.1823L99.8363 28.64ZM98.5163 44V46H100.516V44H98.5163ZM92.9163 44H90.9163V46H92.9163V44ZM92.9163 21.84V19.84H90.9163V21.84H92.9163ZM98.5163 21.84H100.516V19.84H98.5163V21.84ZM100.221 26.326C100.775 25.4236 101.472 24.743 102.321 24.249L100.311 20.791C98.8673 21.6304 97.6979 22.7897 96.8116 24.234L100.221 26.326ZM102.304 24.2589C103.145 23.7811 104.132 23.52 105.316 23.52V19.52C103.514 19.52 101.834 19.9255 100.328 20.7811L102.304 24.2589ZM103.316 21.52V27.4H107.316V21.52H103.316ZM105.316 25.4H103.836V29.4H105.316V25.4ZM103.836 25.4C101.793 25.4 99.8966 25.8785 98.4887 27.1621L101.184 30.1179C101.589 29.7482 102.36 29.4 103.836 29.4V25.4ZM98.4669 27.1823C96.9788 28.5802 96.5163 30.7205 96.5163 32.96H100.516C100.516 31.0928 100.934 30.3531 101.206 30.0977L98.4669 27.1823ZM96.5163 32.96V44H100.516V32.96H96.5163ZM98.5163 42H92.9163V46H98.5163V42ZM94.9163 44V21.84H90.9163V44H94.9163ZM92.9163 23.84H98.5163V19.84H92.9163V23.84ZM96.5163 21.84V25.28H100.516V21.84H96.5163ZM127.768 24.04L126.331 25.4312L126.337 25.437L126.342 25.4427L127.768 24.04ZM130.208 44V46H132.208V44H130.208ZM124.608 44H122.608V46H124.608V44ZM123.288 27.72L121.814 29.0714L121.823 29.0818L121.833 29.092L123.288 27.72ZM116.008 27.72L114.554 26.3468L114.553 26.348L116.008 27.72ZM114.688 44V46H116.688V44H114.688ZM109.088 44H107.088V46H109.088V44ZM109.088 21.84V19.84H107.088V21.84H109.088ZM114.688 21.84H116.688V19.84H114.688V21.84ZM114.688 24.6H112.688V30.4291L116.267 25.8279L114.688 24.6ZM117.528 22.36L118.372 24.1734L118.381 24.1692L118.39 24.165L117.528 22.36ZM121.368 23.52C123.543 23.52 125.131 24.1921 126.331 25.4312L129.205 22.6488C127.151 20.5279 124.473 19.52 121.368 19.52V23.52ZM126.342 25.4427C127.504 26.6229 128.208 28.3806 128.208 31H132.208C132.208 27.646 131.286 24.7638 129.194 22.6373L126.342 25.4427ZM128.208 31V44H132.208V31H128.208ZM130.208 42H124.608V46H130.208V42ZM126.608 44V31.76H122.608V44H126.608ZM126.608 31.76C126.608 29.6822 126.086 27.772 124.743 26.348L121.833 29.092C122.25 29.5346 122.608 30.3178 122.608 31.76H126.608ZM124.762 26.3686C123.439 24.9253 121.666 24.28 119.688 24.28V28.28C120.75 28.28 121.377 28.5947 121.814 29.0714L124.762 26.3686ZM119.688 24.28C117.694 24.28 115.904 24.9178 114.554 26.3468L117.462 29.0932C117.926 28.6022 118.589 28.28 119.688 28.28V24.28ZM114.553 26.348C113.21 27.772 112.688 29.6822 112.688 31.76H116.688C116.688 30.3178 117.046 29.5346 117.463 29.092L114.553 26.348ZM112.688 31.76V44H116.688V31.76H112.688ZM114.688 42H109.088V46H114.688V42ZM111.088 44V21.84H107.088V44H111.088ZM109.088 23.84H114.688V19.84H109.088V23.84ZM112.688 21.84V24.6H116.688V21.84H112.688ZM116.267 25.8279C116.811 25.1288 117.501 24.5783 118.372 24.1734L116.685 20.5466C115.262 21.2084 114.059 22.1512 113.109 23.3721L116.267 25.8279ZM118.39 24.165C119.276 23.7418 120.259 23.52 121.368 23.52V19.52C119.704 19.52 118.127 19.8582 116.667 20.555L118.39 24.165Z" fill="white"/>
<line y1="65" x2="163" y2="65" stroke="white" stroke-width="2"/>
</svg>
