<svg width="22" height="12" viewBox="0 0 22 12" fill="none" xmlns="http://www.w3.org/2000/svg">
<path d="M21.9247 0.612505C21.8482 0.430504 21.7195 0.275219 21.5549 0.166221C21.3903 0.0572224 21.1971 -0.000612701 20.9997 4.8951e-06H0.999708C0.802283 -0.000612701 0.609092 0.0572224 0.444482 0.166221C0.279872 0.275219 0.151209 0.430504 0.0747075 0.612505C0.00266206 0.797216 -0.0156149 0.99855 0.0219908 1.19321C0.0595965 1.38788 0.151548 1.56792 0.287208 1.7125L10.2872 11.7125C10.4783 11.8973 10.7338 12.0006 10.9997 12.0006C11.2656 12.0006 11.5211 11.8973 11.7122 11.7125L21.7122 1.7125C21.8479 1.56792 21.9398 1.38788 21.9774 1.19321C22.015 0.99855 21.9968 0.797216 21.9247 0.612505Z" fill="black"/>
</svg>
